<svg version="1.1" id="Layer_1" xmlns="http://www.w3.org/2000/svg" xmlns:xlink="http://www.w3.org/1999/xlink" x="0px" y="0px"
	 width="100%" viewBox="0 0 400 400" enable-background="new 0 0 400 400" xml:space="preserve">
<path fill="#000000" opacity="1.000000" stroke="none" 
	d="
M126.090332,186.268982 
	C124.031349,201.509628 118.175499,213.819153 103.983009,221.000290 
	C89.862015,228.145264 68.027130,224.606567 58.565624,211.169098 
	C57.433956,209.561859 56.136002,208.628525 54.162460,208.307526 
	C47.968025,207.300003 45.808975,203.965546 48.465839,198.271774 
	C50.803158,193.262802 50.044895,188.658218 48.489071,183.889618 
	C47.952332,182.244507 47.262264,180.364304 48.332294,179.088593 
	C54.545723,171.680725 57.010944,161.441803 66.232422,156.259933 
	C77.083099,150.162613 88.225998,148.390625 100.126587,152.426636 
	C113.584259,156.990723 121.316933,166.559540 124.150772,180.240601 
	C124.563927,182.235184 125.179970,184.059067 126.090332,186.268982 
M110.749802,178.888168 
	C112.818901,178.888168 114.888000,178.888168 117.017342,178.888168 
	C115.169724,168.457291 103.695541,157.206390 93.191376,155.406937 
	C81.977058,153.485794 67.920975,158.130875 60.695858,171.475342 
	C64.698418,176.145279 64.713181,184.118378 60.083103,186.727676 
	C55.732040,189.179733 55.808640,191.474792 58.363594,194.975220 
	C59.094868,195.977112 59.378296,197.437302 59.511337,198.724121 
	C60.854164,211.712311 79.378960,221.285400 91.588646,219.076859 
	C103.197571,216.977005 110.480621,210.222733 115.835640,200.495850 
	C117.598213,197.294312 119.189102,194.141342 114.020241,192.250107 
	C112.790314,191.800079 112.007607,190.127777 111.000481,189.000000 
	C111.000481,189.000000 110.983643,188.980789 110.733368,188.200974 
	C109.632301,185.197189 109.351723,182.129272 109.997238,179.001389 
	C109.997238,179.001389 109.977966,179.013016 110.749802,178.888168 
M120.157547,184.338516 
	C118.108826,183.478546 116.402466,181.530807 113.836449,182.262314 
	C113.217979,187.478699 113.303917,187.613098 119.696228,191.297958 
	C121.529579,189.319565 124.462563,187.650467 120.157547,184.338516 
M59.637138,177.968140 
	C59.554050,176.056000 58.757801,175.257980 56.774368,175.964767 
	C54.523529,176.766846 52.380890,177.623917 52.291565,180.500259 
	C52.234562,182.335876 52.224201,184.253036 54.235847,185.175415 
	C56.245697,186.096970 57.158531,184.329193 58.341667,183.278687 
	C59.749832,182.028381 59.647842,180.354156 59.637138,177.968140 
M56.676144,201.118469 
	C56.749512,199.254395 56.886486,197.061172 54.463879,196.842255 
	C52.335346,196.649933 51.400841,198.842041 50.837807,200.407654 
	C49.977425,202.800125 51.315269,204.446106 53.944519,205.331039 
	C54.818558,204.144928 55.680382,202.975403 56.676144,201.118469 
z"/>
<path fill="#000000" opacity="1.000000" stroke="none" 
	d="
M208.577728,224.330566 
	C198.737640,224.772827 189.796982,224.123016 181.189957,219.173126 
	C168.052017,211.617538 160.259781,191.661667 165.042664,177.244064 
	C168.065094,168.133179 172.935013,160.670685 181.071182,155.832031 
	C198.160416,145.668915 222.152039,149.491486 233.378540,167.161392 
	C244.014572,183.901901 240.478119,205.364670 223.971832,217.718872 
	C219.627258,220.970612 214.431351,223.060654 208.577728,224.330566 
M209.989258,156.322083 
	C191.668228,151.012405 173.787216,163.340225 170.527969,182.624542 
	C167.178543,202.442368 184.987213,223.575989 208.598495,218.455032 
	C229.350861,213.954147 239.781326,186.159164 227.221054,169.490067 
	C222.678635,163.461716 217.398376,159.412689 209.989258,156.322083 
z"/>
<path fill="#000000" opacity="1.000000" stroke="none" 
	d="
M345.129181,162.928894 
	C358.533966,180.567795 353.820740,206.876083 334.434357,217.693665 
	C315.247498,228.399902 289.181610,222.088043 280.116852,198.906509 
	C272.274414,178.850739 282.492859,155.976044 303.760284,149.974106 
	C318.951599,145.686935 334.650330,148.763000 345.129181,162.928894 
M296.435272,211.083237 
	C309.565277,220.695663 324.203796,220.030533 335.975616,209.152390 
	C346.163300,199.738129 348.075012,187.773849 344.366028,175.283707 
	C338.890625,156.844986 319.245636,147.855209 302.090668,156.356171 
	C280.311768,167.148514 278.124817,195.792007 296.435272,211.083237 
z"/>
<path fill="#000000" opacity="1.000000" stroke="none" 
	d="
M373.516357,173.516083 
	C371.178467,170.462082 369.192322,167.571960 366.834869,165.025574 
	C364.997162,163.040619 363.995209,161.298752 366.155182,159.052490 
	C368.167999,156.959290 370.295044,155.628189 372.996277,158.110123 
	C381.937134,166.325012 388.093414,176.106567 389.244568,188.404633 
	C390.705536,204.012711 384.986938,216.947708 373.824280,227.686966 
	C371.700378,229.730331 369.619751,230.972229 366.929413,228.564087 
	C364.110443,226.040771 364.826630,223.896042 367.164307,221.427216 
	C376.093994,211.996658 380.455414,200.958237 378.802643,187.791779 
	C378.163727,182.702072 375.779846,178.344421 373.516357,173.516083 
z"/>
<path fill="#000000" opacity="1.000000" stroke="none" 
	d="
M13.759151,201.546555 
	C12.215630,185.850143 17.580616,173.204453 28.118109,162.400131 
	C33.249538,157.138763 33.840256,157.076950 38.750381,163.572479 
	C30.941807,172.571152 24.036070,181.918976 24.176086,194.980072 
	C24.315245,207.961456 30.649738,217.559021 38.915829,226.506317 
	C37.948544,229.297531 34.997696,230.120483 33.754608,232.981384 
	C22.739435,224.954453 16.693464,214.503860 13.759151,201.546555 
z"/>
<path fill="#000000" opacity="1.000000" stroke="none" 
	d="
M136.870926,206.310059 
	C140.037628,201.454254 146.423523,201.286957 149.289047,205.556091 
	C154.940781,213.976166 150.502075,226.414261 140.725983,229.451782 
	C138.670578,230.090408 136.572067,230.630203 134.458328,231.030075 
	C132.288040,231.440643 129.989548,231.822662 129.725266,228.492554 
	C129.517456,225.873871 129.995361,224.146423 133.214279,223.699905 
	C141.158707,222.597900 141.924164,220.655228 137.623825,213.532928 
	C136.313904,211.363419 136.735779,209.044601 136.870926,206.310059 
z"/>
<path fill="#000000" opacity="1.000000" stroke="none" 
	d="
M271.328003,215.624802 
	C270.423798,224.092514 261.447388,230.110046 252.632675,229.987411 
	C250.839493,229.962463 249.819702,229.151718 249.749100,227.308792 
	C249.682861,225.579666 249.675583,224.003189 252.041748,223.641296 
	C253.482239,223.420990 254.904831,222.807541 256.229675,222.155640 
	C261.503784,219.560516 261.915985,217.719528 258.403381,213.106094 
	C256.437256,210.523804 254.426956,207.744247 256.626160,204.524414 
	C258.519867,201.751846 261.449524,200.442322 264.904022,201.336029 
	C268.662140,202.308304 270.979248,204.712234 271.265472,208.695007 
	C271.420258,210.848099 271.322296,213.019348 271.328003,215.624802 
z"/>
<path fill="#000000" opacity="1.000000" stroke="none" 
	d="
M111.009842,189.008835 
	C113.030205,199.969696 109.148842,206.205154 97.104828,211.371292 
	C86.484146,215.926895 72.199654,211.769440 66.101509,202.238251 
	C63.660557,198.423111 62.127144,194.003708 64.916931,190.054733 
	C67.549431,186.328400 71.809669,186.691696 75.834946,188.235535 
	C83.589241,191.209595 91.366287,191.005066 99.122391,188.266846 
	C102.930077,186.922592 106.621422,187.063049 110.619789,188.896332 
	C110.983643,188.980789 111.000481,189.000000 111.009842,189.008835 
M76.460838,205.099701 
	C85.886482,212.920334 100.457169,207.736633 104.941994,198.460114 
	C105.935066,196.406036 106.419792,194.205292 105.040276,192.336411 
	C103.614845,190.405304 101.662567,191.820786 100.021545,192.361694 
	C91.557091,195.151627 83.125359,195.361069 74.720528,192.190292 
	C73.146721,191.596558 71.540764,190.685776 70.158638,192.271057 
	C68.795898,193.834076 69.099319,195.740234 69.937706,197.420639 
	C71.357086,200.265533 73.287872,202.747772 76.460838,205.099701 
z"/>
<path fill="#000000" opacity="1.000000" stroke="none" 
	d="
M75.410149,169.880264 
	C77.627022,170.561188 78.936485,171.831711 80.011909,173.299057 
	C81.041946,174.704468 81.481987,176.290771 80.237602,177.848907 
	C79.038666,179.350143 77.461990,178.973846 76.221466,178.167847 
	C73.599945,176.464554 71.187370,176.024643 68.561646,178.144135 
	C67.287514,179.172623 65.788879,179.292084 64.656464,177.775848 
	C63.514511,176.246841 63.692326,174.690262 64.824066,173.227249 
	C67.450447,169.832092 71.017853,169.185608 75.410149,169.880264 
z"/>
<path fill="#000000" opacity="1.000000" stroke="none" 
	d="
M110.005196,178.994553 
	C106.019882,178.005280 102.297882,175.489624 97.847839,178.415070 
	C95.938652,179.670181 94.523346,177.555038 94.727745,175.389694 
	C94.998253,172.524170 97.281265,171.043472 99.572128,170.231979 
	C103.180588,168.953690 106.673859,169.303589 109.626198,172.332809 
	C111.562019,174.319077 112.028809,176.193512 110.167923,178.741501 
	C109.977966,179.013016 109.997238,179.001389 110.005196,178.994553 
z"/>
<path fill="#000000" opacity="1.000000" stroke="none" 
	d="
M190.321198,213.203339 
	C183.593796,210.041946 177.396530,206.935928 175.274155,199.308014 
	C173.414154,192.623138 176.193726,188.726807 183.059250,188.639069 
	C186.598953,188.593826 190.013397,189.055679 193.304367,190.348679 
	C199.147552,192.644424 204.995834,192.394547 210.831436,190.369629 
	C213.191940,189.550583 215.551666,188.528320 218.068359,188.730896 
	C221.167801,188.980377 225.131271,187.131439 226.934723,191.226944 
	C228.938721,195.777863 228.599716,200.542984 225.303207,204.298492 
	C219.616684,210.776794 212.498947,214.712860 203.537323,214.325989 
	C199.253906,214.141083 194.882935,215.014603 190.321198,213.203339 
M191.340515,200.137268 
	C192.964462,202.422119 195.277969,203.440506 197.704147,202.118149 
	C199.502563,201.137909 199.200836,198.515121 198.376282,197.203018 
	C196.659210,194.470764 193.724777,194.330200 190.896500,194.900558 
	C190.101044,196.666016 190.418472,198.068451 191.340515,200.137268 
M204.231400,200.200638 
	C204.739838,203.564255 207.273529,203.000931 209.210632,202.334183 
	C213.105621,200.993500 211.759979,197.689117 211.866409,194.328934 
	C208.497452,195.490433 203.973175,193.648361 204.231400,200.200638 
M185.615631,197.015213 
	C185.450211,195.457367 186.182312,193.440811 183.990631,192.810623 
	C182.487534,192.378403 181.520462,193.490540 180.884491,194.728760 
	C180.325943,195.816254 180.034760,197.213501 181.157639,197.891968 
	C182.506210,198.706833 184.257217,200.391815 185.615631,197.015213 
M217.989655,194.685013 
	C217.861572,196.053238 216.676331,197.748062 218.747467,198.525940 
	C220.001678,198.997009 221.455475,198.812576 222.251282,197.460190 
	C223.013519,196.164871 222.729935,194.842545 221.663834,193.847305 
	C220.506485,192.766876 219.205704,191.861679 217.989655,194.685013 
M209.587799,207.063263 
	C208.942612,207.100723 208.288605,207.083969 207.654129,207.187256 
	C206.449738,207.383316 204.883224,206.995651 204.552048,208.787506 
	C204.479675,209.179016 204.707062,209.825043 205.017456,210.053558 
	C206.331604,211.020935 207.472855,209.880325 208.637863,209.531509 
	C209.564697,209.253983 210.346878,208.573654 209.587799,207.063263 
M196.714066,210.271774 
	C197.900223,210.397781 199.010849,209.838745 198.470840,208.709824 
	C197.413940,206.500305 195.439468,206.955673 193.601334,207.398926 
	C193.289169,209.724747 194.998627,209.582458 196.714066,210.271774 
z"/>
<path fill="#000000" opacity="1.000000" stroke="none" 
	d="
M226.066116,176.011063 
	C225.391190,178.446213 224.196304,179.537949 221.940491,178.759705 
	C220.315140,178.198990 218.697540,178.175323 217.062866,178.726761 
	C215.537994,179.241150 214.051529,179.340973 213.188278,177.656464 
	C212.451126,176.217987 212.631836,174.723373 213.546906,173.410919 
	C215.012558,171.308807 216.734787,169.483643 219.605835,169.758850 
	C223.176880,170.101196 225.285873,172.161957 226.066116,176.011063 
z"/>
<path fill="#000000" opacity="1.000000" stroke="none" 
	d="
M184.701126,178.363083 
	C183.969193,178.318909 183.635376,178.330368 183.304092,178.306534 
	C181.202957,178.155380 178.505920,180.352203 177.192917,177.099747 
	C176.273788,174.822998 177.316833,172.916107 179.242981,171.462006 
	C181.719727,169.592285 184.306335,168.810852 186.979904,170.903656 
	C188.993484,172.479828 190.799377,174.385269 189.757355,177.255814 
	C188.857162,179.735748 186.855972,178.816696 184.701126,178.363083 
z"/>
<path fill="#000000" opacity="1.000000" stroke="none" 
	d="
M316.387268,194.976166 
	C320.746552,195.894440 324.364532,197.590988 327.857452,199.441895 
	C329.278625,200.194977 331.499512,201.486786 330.451782,203.659851 
	C329.266266,206.118683 327.060455,205.133286 325.267212,204.196091 
	C320.174072,201.534317 314.865662,199.742355 309.044739,200.325195 
	C305.920929,200.638000 302.831329,201.301407 299.730438,201.830994 
	C297.526733,202.207336 295.481232,201.921066 295.191589,199.328888 
	C294.903442,196.749771 295.910919,194.708664 299.020966,194.728897 
	C304.665924,194.765594 310.310669,194.831985 316.387268,194.976166 
z"/>
<path fill="#000000" opacity="1.000000" stroke="none" 
	d="
M335.077026,179.872284 
	C330.558472,185.448059 325.885040,185.927002 321.601044,181.181931 
	C320.078705,179.495758 318.349487,179.159897 316.468079,178.659210 
	C315.340607,178.359192 314.116425,177.958862 314.098022,176.519943 
	C314.077789,174.938080 315.239685,173.964325 316.590454,173.924423 
	C322.034607,173.763626 327.513214,173.470505 332.922119,173.916840 
	C336.052429,174.175140 336.689301,176.719574 335.077026,179.872284 
z"/>
<path fill="#000000" opacity="1.000000" stroke="none" 
	d="
M310.155884,182.243256 
	C305.466736,185.189041 301.361786,185.287781 297.984863,180.880447 
	C296.698669,179.201797 294.920532,179.072922 293.124329,178.768173 
	C291.634796,178.515457 290.715515,177.751740 290.795990,176.087952 
	C290.878082,174.390289 291.909576,173.756699 293.418701,173.746094 
	C298.412476,173.711029 303.417084,173.517975 308.397003,173.778305 
	C312.043610,173.968948 312.541901,176.322418 310.155884,182.243256 
z"/>
</svg>